<svg width="20" height="20" viewBox="0 0 20 20" fill="none" xmlns="http://www.w3.org/2000/svg">
<path fill-rule="evenodd" clip-rule="evenodd" d="M10.1754 1.04491C10.0584 1.04061 9.94117 1.04061 9.8241 1.04491C9.05128 1.07326 8.35539 1.33605 7.59238 1.7735C6.84882 2.1998 5.99279 2.82175 4.90664 3.61089L4.8476 3.65379C3.76144 4.44293 2.90539 5.06488 2.27018 5.64031C1.61835 6.23079 1.15338 6.81142 0.887607 7.53765C0.847346 7.64766 0.811134 7.75911 0.779042 7.87178C0.567191 8.61553 0.602077 9.35857 0.782336 10.2194C0.958 11.0583 1.28498 12.0646 1.69986 13.3415L3.14533 17.7902C3.45688 18.749 4.35043 19.3982 5.35863 19.3982C6.64391 19.3982 7.68583 18.3563 7.68583 17.071V14.7803C7.68583 14.2433 8.1211 13.8081 8.65803 13.8081H11.3415C11.8784 13.8081 12.3137 14.2433 12.3137 14.7803V17.071C12.3137 18.3563 13.3556 19.3982 14.6409 19.3982C15.6491 19.3982 16.5426 18.749 16.8542 17.7902L18.2997 13.3415C18.7145 12.0646 19.0415 11.0583 19.2172 10.2194C19.3974 9.35857 19.4323 8.61553 19.2205 7.87178C19.1884 7.75912 19.1522 7.64766 19.1119 7.53765C18.8461 6.81142 18.3812 6.23079 17.7293 5.64031C17.0941 5.06487 16.2381 4.44293 15.1519 3.65378L15.0929 3.61088C14.0067 2.82174 13.1507 2.1998 12.4071 1.7735C11.6441 1.33605 10.9482 1.07326 10.1754 1.04491ZM9.86992 2.29407C9.95645 2.29089 10.0431 2.29089 10.1296 2.29407C10.6258 2.31227 11.12 2.47641 11.7854 2.85792C12.4636 3.24671 13.2655 3.82832 14.3877 4.64362C15.5098 5.45892 16.3108 6.0419 16.8901 6.56671C17.4586 7.08167 17.7674 7.50096 17.9381 7.96724C17.9678 8.04855 17.9946 8.13093 18.0183 8.21421C18.1543 8.69175 18.1509 9.21248 17.9937 9.96322C17.8335 10.7283 17.5282 11.6708 17.0996 12.9899L15.6654 17.4039C15.5212 17.8477 15.1076 18.1482 14.6409 18.1482C14.046 18.1482 13.5637 17.666 13.5637 17.071V14.7803C13.5637 13.553 12.5688 12.5581 11.3415 12.5581H8.65803C7.43074 12.5581 6.43583 13.553 6.43583 14.7803V17.071C6.43583 17.666 5.95356 18.1482 5.35863 18.1482C4.89196 18.1482 4.47836 17.8477 4.33415 17.4039L2.89996 12.9899C2.47134 11.6708 2.16601 10.7283 2.0058 9.96322C1.8486 9.21248 1.8452 8.69175 1.98122 8.21421C2.00494 8.13093 2.03171 8.04856 2.06147 7.96724C2.23211 7.50096 2.54094 7.08167 3.1094 6.56671C3.68872 6.0419 4.48968 5.45892 5.61184 4.64362C6.73401 3.82832 7.53596 3.24671 8.21411 2.85792C8.87953 2.47641 9.37373 2.31227 9.86992 2.29407Z" fill="#4D4F5C"/>
</svg>
