<svg width="20" height="20" viewBox="0 0 20 20" fill="none" xmlns="http://www.w3.org/2000/svg">
<path fill-rule="evenodd" clip-rule="evenodd" d="M13.1499 8.75402C13.6434 7.55537 12.4448 6.3567 11.2461 6.85027L9.01539 7.76881C8.45031 8.00149 8.00157 8.45023 7.76889 9.01531L6.85035 11.246C6.35679 12.4447 7.55544 13.6434 8.7541 13.1498L10.9848 12.2313C11.5499 11.9986 11.9987 11.5498 12.2313 10.9847L13.1499 8.75402ZM11.7221 8.00612C11.8933 7.93561 12.0645 8.10684 11.994 8.27808L11.0755 10.5088C10.9697 10.7657 10.7657 10.9696 10.5089 11.0754L8.27816 11.9939C8.10693 12.0644 7.93569 11.8932 8.0062 11.722L8.92473 9.49124C9.0305 9.23439 9.23447 9.03042 9.49133 8.92465L11.7221 8.00612Z" fill="#1E80B4"/>
<path fill-rule="evenodd" clip-rule="evenodd" d="M12.5557 1.49636C11.8853 1.43645 11.066 1.43646 10.0295 1.43646H9.97076C8.93425 1.43646 8.11496 1.43645 7.44448 1.49636C6.75576 1.5579 6.17972 1.68544 5.63529 1.96473C5.49426 2.03707 5.35691 2.11637 5.22374 2.20233C4.70966 2.53418 4.31119 2.96928 3.91353 3.53495C3.52641 4.08565 3.11677 4.79518 2.59852 5.69283L2.56917 5.74366C2.05091 6.6413 1.64126 7.35083 1.3579 7.96144C1.06684 8.58865 0.889264 9.15129 0.858922 9.76242C0.851062 9.92073 0.851062 10.0793 0.858922 10.2376C0.889264 10.8488 1.06684 11.4114 1.3579 12.0386C1.64126 12.6492 2.0509 13.3587 2.56915 14.2564L2.5985 14.3072C3.11675 15.2049 3.52641 15.9144 3.91353 16.4651C4.31118 17.0308 4.70966 17.4659 5.22374 17.7977C5.35691 17.8837 5.49426 17.963 5.63529 18.0353C6.17972 18.3146 6.75576 18.4422 7.44448 18.5037C8.11494 18.5636 8.93422 18.5636 9.97071 18.5636H10.0295C11.0659 18.5636 11.8853 18.5636 12.5557 18.5037C13.2445 18.4422 13.8205 18.3146 14.3649 18.0353C14.506 17.963 14.6433 17.8837 14.7765 17.7977C15.2906 17.4659 15.689 17.0308 16.0867 16.4651C16.4738 15.9144 16.8834 15.2049 17.4017 14.3073L17.431 14.2564C17.9493 13.3588 18.359 12.6492 18.6423 12.0386C18.9334 11.4114 19.111 10.8488 19.1413 10.2376C19.1492 10.0793 19.1492 9.92073 19.1413 9.76242C19.111 9.15129 18.9334 8.58865 18.6423 7.96144C18.359 7.35083 17.9493 6.64129 17.431 5.74364L17.4017 5.69278C16.8834 4.79516 16.4738 4.08564 16.0867 3.53495C15.689 2.96928 15.2906 2.53418 14.7765 2.20233C14.6433 2.11637 14.506 2.03707 14.3649 1.96473C13.8205 1.68544 13.2445 1.5579 12.5557 1.49636ZM6.20584 3.07692C6.55685 2.89685 6.95921 2.7947 7.55573 2.7414C8.16416 2.68704 8.92778 2.68646 10.0001 2.68646C11.0724 2.68646 11.8361 2.68704 12.4445 2.7414C13.041 2.7947 13.4434 2.89685 13.7944 3.07692C13.8986 3.13039 14.0001 3.189 14.0986 3.25254C14.43 3.46649 14.7197 3.76387 15.0641 4.25382C15.4154 4.75356 15.7977 5.41459 16.3338 6.34325C16.87 7.2719 17.2513 7.93351 17.5085 8.48761C17.7605 9.03086 17.8733 9.43038 17.8928 9.82441C17.8986 9.94142 17.8986 10.0586 17.8928 10.1757C17.8733 10.5697 17.7605 10.9692 17.5085 11.5124C17.2513 12.0665 16.87 12.7282 16.3338 13.6568C15.7977 14.5855 15.4154 15.2465 15.0641 15.7462C14.7197 16.2362 14.43 16.5336 14.0986 16.7475C14.0001 16.8111 13.8986 16.8697 13.7944 16.9231C13.4434 17.1032 13.041 17.2054 12.4445 17.2587C11.8361 17.313 11.0724 17.3136 10.0001 17.3136C8.92778 17.3136 8.16416 17.313 7.55573 17.2587C6.95921 17.2054 6.55685 17.1032 6.20584 16.9231C6.1016 16.8697 6.00008 16.8111 5.90165 16.7475C5.5702 16.5336 5.28056 16.2362 4.93614 15.7462C4.58484 15.2465 4.20254 14.5855 3.66637 13.6568C3.13021 12.7282 2.7489 12.0665 2.49176 11.5124C2.23967 10.9692 2.12695 10.5697 2.10738 10.1757C2.10157 10.0586 2.10157 9.94141 2.10738 9.82441C2.12695 9.43038 2.23967 9.03086 2.49176 8.48761C2.7489 7.93351 3.13021 7.2719 3.66637 6.34325C4.20254 5.41459 4.58485 4.75356 4.93614 4.25382C5.28056 3.76387 5.5702 3.46649 5.90165 3.25254C6.00008 3.189 6.1016 3.13039 6.20584 3.07692Z" fill="#1E80B4"/>
</svg>
