<svg width="20" height="20" viewBox="0 0 20 20" fill="none" xmlns="http://www.w3.org/2000/svg">
<path fill-rule="evenodd" clip-rule="evenodd" d="M12.1096 1.04232C11.3222 1.02668 10.4469 1.30283 9.00988 1.75619L8.82264 1.81524C8.26008 1.99257 7.91395 2.10169 7.59362 2.2579C6.93141 2.58082 6.35259 3.0521 5.90214 3.63509C5.68425 3.91711 5.50724 4.23394 5.21956 4.74887L3.18174 8.39574C2.53284 9.55663 2.13686 10.265 1.98502 10.9616C1.64953 12.5006 2.09185 14.1062 3.16816 15.2563C3.65527 15.7768 4.35817 16.1825 5.51001 16.8473L5.72812 16.9732C6.87977 17.6383 7.58255 18.0442 8.27688 18.2058C9.81104 18.5629 11.4227 18.1431 12.5878 17.0831C13.1151 16.6033 13.5306 15.9062 14.2115 14.7638L16.3509 11.1756C16.653 10.6689 16.8388 10.3572 16.9741 10.0275C17.2538 9.34591 17.3725 8.609 17.3211 7.87405C17.2962 7.51853 17.2176 7.1642 17.0899 6.58833L17.0474 6.39669C16.7216 4.92552 16.5231 4.02941 16.1158 3.3553C15.2657 1.94806 13.7534 1.07496 12.1096 1.04232ZM9.24781 2.99185C10.8666 2.48144 11.5299 2.28105 12.0848 2.29207C13.2998 2.3162 14.4175 2.96154 15.0459 4.00166C15.3329 4.47671 15.491 5.15136 15.8584 6.80845C16.0007 7.45033 16.0565 7.70966 16.0741 7.96133C16.1122 8.50455 16.0244 9.04922 15.8177 9.55301C15.7219 9.78641 15.5874 10.0151 15.2508 10.5798L13.2023 14.0155C12.4363 15.3002 12.1184 15.8202 11.7466 16.1585C10.8854 16.942 9.69418 17.2523 8.56024 16.9883C8.0706 16.8744 7.53944 16.5756 6.24408 15.8277C4.94871 15.0798 4.42434 14.7692 4.08083 14.4022C3.2853 13.5521 2.95836 12.3653 3.20634 11.2278C3.31341 10.7366 3.60475 10.2013 4.33437 8.89557L6.28555 5.40372C6.60625 4.82979 6.73704 4.59899 6.89129 4.39935C7.22423 3.96844 7.65205 3.62011 8.14151 3.38143C8.36826 3.27085 8.62079 3.18955 9.24781 2.99185Z" fill="#4D4F5C"/>
<path fill-rule="evenodd" clip-rule="evenodd" d="M9.38061 6.00518C8.80532 7.00162 9.14672 8.27577 10.1432 8.85107C11.1396 9.42636 12.4138 9.08496 12.9891 8.08851C13.5643 7.09207 13.2229 5.81792 12.2265 5.24263C11.2301 4.66733 9.95591 5.00874 9.38061 6.00518ZM10.4631 6.63018C10.233 7.02876 10.3696 7.53841 10.7682 7.76853C11.1667 7.99865 11.6764 7.86209 11.9065 7.46351C12.1366 7.06494 12.0001 6.55528 11.6015 6.32516C11.2029 6.09504 10.6933 6.2316 10.4631 6.63018Z" fill="#4D4F5C"/>
</svg>
