<svg width="20" height="20" viewBox="0 0 20 20" fill="none" xmlns="http://www.w3.org/2000/svg">
<g clip-path="url(#clip0_1196_3207)">
<path d="M19.375 9.72656H14.5814C14.4304 9.72656 14.308 9.84898 14.308 10C14.308 12.3754 12.3754 14.308 10 14.308C7.62457 14.308 5.69203 12.3754 5.69203 10C5.69203 9.84898 5.56961 9.72656 5.41859 9.72656H0.625C0.473984 9.72656 0.351562 9.84898 0.351562 10V10.9375C0.351562 11.4278 0.750469 11.8267 1.24082 11.8267C1.98219 11.8267 2.6193 12.253 2.90355 12.9393C3.18785 13.6257 3.03879 14.3777 2.51457 14.902C2.34664 15.0699 2.25414 15.2932 2.25414 15.5308C2.25414 15.7683 2.34664 15.9916 2.51457 16.1596L3.84039 17.4854C4.18715 17.8321 4.75129 17.8321 5.09801 17.4854C5.62305 16.9605 6.37531 16.8109 7.06121 17.095C7.74715 17.3791 8.17324 18.0168 8.17324 18.7592C8.17324 19.2495 8.57215 19.6484 9.0625 19.6484H10.9374C11.4277 19.6484 11.8267 19.2495 11.8267 18.7592C11.8267 18.0178 12.253 17.3807 12.9393 17.0964C13.6257 16.8122 14.3777 16.9612 14.9019 17.4854C15.2487 17.8321 15.8129 17.8321 16.1596 17.4854L17.4854 16.1596C17.6533 15.9916 17.7458 15.7683 17.7458 15.5308C17.7458 15.2932 17.6533 15.0699 17.4854 14.902C16.9612 14.3777 16.8121 13.6257 17.0964 12.9393C17.3807 12.253 18.0178 11.8267 18.7592 11.8267C19.2495 11.8267 19.6484 11.4278 19.6484 10.9375V10C19.6484 9.84898 19.526 9.72656 19.375 9.72656ZM19.1016 10.9375C19.1016 11.1262 18.948 11.2798 18.7592 11.2798C17.7924 11.2798 16.9617 11.8355 16.5912 12.7301C16.2206 13.6246 16.4151 14.605 17.0987 15.2886C17.1634 15.3533 17.1989 15.4393 17.1989 15.5308C17.1989 15.6223 17.1634 15.7082 17.0987 15.7729L15.7729 17.0987C15.6394 17.2321 15.4221 17.2322 15.2886 17.0987C14.605 16.4151 13.6246 16.2205 12.7301 16.5912C11.8355 16.9617 11.2798 17.7924 11.2798 18.7592C11.2798 18.948 11.1262 19.1016 10.9375 19.1016H9.06254C8.87375 19.1016 8.72016 18.948 8.72016 18.7592C8.72016 17.7914 8.16469 16.96 7.27055 16.5897C6.97086 16.4655 6.66164 16.405 6.35691 16.405C5.75246 16.405 5.16637 16.6437 4.71137 17.0987C4.57785 17.2322 4.36062 17.2322 4.22715 17.0987L2.90133 15.7729C2.83668 15.7083 2.80109 15.6223 2.80109 15.5308C2.80109 15.4393 2.83672 15.3533 2.90133 15.2887C3.58492 14.6051 3.77941 13.6247 3.40887 12.7301C3.03832 11.8356 2.20762 11.2799 1.24086 11.2799C1.05207 11.2799 0.898477 11.1263 0.898477 10.9375V10.2734H5.15281C5.2952 12.8236 7.41492 14.8548 10 14.8548C12.5852 14.8548 14.7049 12.8236 14.8473 10.2734H19.1016V10.9375ZM6.70797 9.72656C6.55695 9.72656 6.43453 9.84898 6.43453 10C6.43453 11.966 8.03398 13.5654 10 13.5654C11.966 13.5654 13.5655 11.966 13.5655 10C13.5655 9.84898 13.443 9.72656 13.292 9.72656H6.70797ZM10 13.0186C8.4277 13.0186 7.13227 11.8102 6.99367 10.2734H13.0063C12.8677 11.8103 11.5723 13.0186 10 13.0186ZM10.0001 3.7809C10.9456 3.7809 11.7148 3.01168 11.7148 2.06613C11.7149 1.1207 10.9456 0.351562 10.0001 0.351562C9.05453 0.351562 8.28531 1.1207 8.28531 2.06613C8.28531 3.01168 9.05457 3.7809 10.0001 3.7809ZM10.0001 0.898438C10.6441 0.898438 11.168 1.42227 11.168 2.06613C11.168 2.71012 10.644 3.23402 10.0001 3.23402C9.35613 3.23402 8.83219 2.71012 8.83219 2.06613C8.83219 1.42227 9.35613 0.898438 10.0001 0.898438ZM1.50508 8.68188C2.10016 8.90098 2.89516 9.02164 3.74355 9.02164C5.03133 9.02164 6.32781 8.74004 6.87063 8.12668C7.04426 8.32559 7.32309 8.52047 7.76152 8.68188C8.3566 8.90098 9.1516 9.02164 10 9.02164C11.2878 9.02164 12.5843 8.74004 13.1271 8.12668C13.3007 8.32559 13.5795 8.52047 14.018 8.68188C14.613 8.90098 15.408 9.02164 16.2564 9.02164C17.9448 9.02164 19.6484 8.53766 19.6484 7.45652C19.6484 5.58625 18.1268 4.06465 16.2565 4.06465C14.8507 4.06465 13.642 4.92426 13.1282 6.14539C12.6145 4.92426 11.4058 4.06465 10.0001 4.06465C8.59426 4.06465 7.38555 4.92426 6.87176 6.14539C6.35801 4.92426 5.14934 4.06465 3.74363 4.06465C1.87324 4.06465 0.351562 5.58625 0.351562 7.45652C0.351562 7.82176 0.55168 8.3309 1.50508 8.68188ZM16.2565 4.61152C17.8253 4.61152 19.1016 5.88777 19.1016 7.45652C19.1016 8.0275 17.8518 8.47477 16.2564 8.47477C14.6611 8.47477 13.4113 8.0275 13.4113 7.45652C13.4113 5.88777 14.6877 4.61152 16.2565 4.61152ZM10.0001 4.61152C11.5688 4.61152 12.8451 5.88777 12.8451 7.45652C12.8451 8.0275 11.5954 8.47477 9.99996 8.47477C8.40457 8.47477 7.15488 8.0275 7.15488 7.45652C7.15488 5.88777 8.43125 4.61152 10.0001 4.61152ZM3.74367 4.61152C5.31242 4.61152 6.58867 5.88777 6.58867 7.45652C6.58867 8.0275 5.33895 8.47477 3.74355 8.47477C2.14816 8.47477 0.898438 8.0275 0.898438 7.45652C0.898438 5.88777 2.1748 4.61152 3.74367 4.61152ZM3.74367 3.7809C4.68922 3.7809 5.45844 3.01168 5.45844 2.06613C5.45844 1.1207 4.68918 0.351562 3.74367 0.351562C2.79816 0.351562 2.02887 1.1207 2.02887 2.06613C2.02887 3.01168 2.79813 3.7809 3.74367 3.7809ZM3.74367 0.898438C4.38766 0.898438 4.91156 1.42227 4.91156 2.06613C4.91156 2.71012 4.38762 3.23402 3.74367 3.23402C3.09973 3.23402 2.57574 2.71012 2.57574 2.06613C2.57574 1.42227 3.09969 0.898438 3.74367 0.898438ZM16.2565 3.7809C17.2021 3.7809 17.9713 3.01168 17.9713 2.06613C17.9713 1.1207 17.2021 0.351562 16.2565 0.351562C15.311 0.351562 14.5418 1.1207 14.5418 2.06613C14.5418 3.01168 15.311 3.7809 16.2565 3.7809ZM16.2565 0.898438C16.9005 0.898438 17.4245 1.42227 17.4245 2.06613C17.4245 2.71012 16.9005 3.23402 16.2565 3.23402C15.6125 3.23402 15.0886 2.71012 15.0886 2.06613C15.0887 1.42227 15.6126 0.898438 16.2565 0.898438Z" fill="#4D4F5C"/>
</g>
<defs>
<clipPath id="clip0_1196_3207">
<rect width="20" height="20" fill="white"/>
</clipPath>
</defs>
</svg>
