<svg width="20" height="20" viewBox="0 0 20 20" fill="none" xmlns="http://www.w3.org/2000/svg">
<g clip-path="url(#clip0_1196_3211)">
<path d="M11.6763 14.1765V12.5882C11.6763 12.4118 11.5587 12.2941 11.3822 12.2941C11.2057 12.2941 11.0881 12.4118 11.0881 12.5882V14.1765C10.6175 14.2941 10.2939 14.7353 10.2939 15.2059C10.2939 15.7941 10.7939 16.2941 11.3822 16.2941C11.9704 16.2941 12.4704 15.7941 12.4704 15.2059C12.4704 14.7353 12.1175 14.2941 11.6763 14.1765ZM11.3822 15.7059C11.1175 15.7059 10.8822 15.4706 10.8822 15.2059C10.8822 14.9412 11.0881 14.7059 11.3528 14.7059H11.3822C11.3822 14.7059 11.3822 14.7059 11.4116 14.7059C11.6763 14.7059 11.8822 14.9412 11.8822 15.2059C11.8822 15.5 11.6469 15.7059 11.3822 15.7059Z" fill="#4D4F5C"/>
<path d="M13.8826 11.1471H15.3531C15.4708 11.6177 15.912 11.9412 16.3826 11.9412C16.9708 11.9412 17.4708 11.4412 17.4708 10.853C17.4708 10.2647 16.9708 9.76473 16.3826 9.76473C15.8826 9.76473 15.4708 10.0883 15.3531 10.5588H14.1767V8.4412H16.7061C16.8826 8.4412 17.0002 8.32355 17.0002 8.14708V6.67649C17.0002 6.52943 16.8826 6.41179 16.7355 6.38237L15.2943 6.2059C15.1767 5.73532 14.9708 5.26473 14.7355 4.85296L15.6178 3.73532C15.7061 3.61767 15.7061 3.4412 15.5884 3.35296L14.2061 1.97061C14.0884 1.85296 13.9414 1.85296 13.8237 1.9412L12.7061 2.82355C12.2943 2.58826 11.8237 2.38237 11.3531 2.26473L11.1767 0.852963C11.1767 0.705904 11.059 0.588257 10.8826 0.588257H8.91197C8.76491 0.588257 8.64726 0.705904 8.61785 0.852963L8.44138 2.29414C7.97079 2.41179 7.5002 2.61767 7.08844 2.85296L5.97079 1.97061C5.85314 1.88237 5.67667 1.88237 5.58844 2.00002L4.20608 3.38237C4.08844 3.50002 4.08844 3.64708 4.17667 3.76473L5.05903 4.91179C4.82373 5.32355 4.61785 5.79414 4.5002 6.26473L3.05902 6.4412C2.91197 6.47061 2.79432 6.58826 2.79432 6.73532V8.2059C2.79432 8.38237 2.91197 8.50002 3.08844 8.50002H5.61785V10.1471H4.44138C4.32373 9.67649 3.88255 9.35296 3.41197 9.35296C2.82373 9.35296 2.32373 9.85296 2.32373 10.4412C2.32373 11.0294 2.85314 11.4706 3.44138 11.4706C3.94138 11.4706 4.35314 11.1471 4.47079 10.6765H5.94138C6.11785 10.6765 6.2355 10.5588 6.2355 10.3824V8.4412H8.14726V12.0588C7.67667 12.1765 7.35314 12.6177 7.35314 13.0883C7.35314 13.6765 7.85314 14.1765 8.44138 14.1765C9.02961 14.1765 9.52961 13.6765 9.52961 13.0883C9.52961 12.5883 9.20608 12.1765 8.7355 12.0588V8.4412H11.059V11.2353C11.059 11.4118 11.1767 11.5294 11.3531 11.5294C11.5296 11.5294 11.6473 11.4118 11.6473 11.2353V8.4412H13.559V10.853C13.5884 11.0294 13.7355 11.1471 13.8826 11.1471ZM16.3826 10.353C16.6473 10.353 16.8826 10.5883 16.8826 10.853C16.8826 11.1177 16.6473 11.353 16.3826 11.353C16.1178 11.353 15.8826 11.1471 15.8826 10.853C15.8826 10.5588 16.1178 10.353 16.3826 10.353ZM3.44138 10.8824C3.17667 10.8824 2.94138 10.6471 2.94138 10.3824C2.94138 10.1177 3.17667 9.88237 3.44138 9.88237C3.70608 9.88237 3.94138 10.1177 3.94138 10.3824C3.94138 10.6471 3.70608 10.8824 3.44138 10.8824ZM8.97079 13.0883C8.97079 13.353 8.7355 13.5883 8.47079 13.5883C8.20608 13.5883 7.97079 13.353 7.97079 13.0883C7.97079 12.8236 8.17667 12.5883 8.44138 12.5883H8.47079C8.47079 12.5883 8.47079 12.5883 8.5002 12.5883C8.7355 12.6177 8.97079 12.8236 8.97079 13.0883ZM3.41197 6.97061L4.79432 6.79414C4.91197 6.76473 5.02961 6.67649 5.05903 6.55884C5.17667 6.00002 5.41197 5.47061 5.70608 5.00002C5.76491 4.88237 5.76491 4.76473 5.67667 4.64708L4.82373 3.55885L5.82373 2.55884L6.91197 3.41179C7.0002 3.50002 7.14726 3.50002 7.26491 3.4412C7.7355 3.14708 8.26491 2.91179 8.82373 2.79414C8.94138 2.76473 9.02961 2.67649 9.05902 2.52943L9.20608 1.17649H10.6473L10.8237 2.55884C10.8531 2.67649 10.9414 2.79414 11.059 2.82355C11.6178 2.9412 12.1473 3.17649 12.6178 3.47061C12.7355 3.52943 12.8531 3.52943 12.9708 3.4412L14.059 2.58826L15.059 3.58826L14.2061 4.67649C14.1178 4.76473 14.1178 4.91179 14.1767 5.02943C14.4708 5.50002 14.7061 6.02943 14.8237 6.58826C14.8531 6.7059 14.9414 6.79414 15.0884 6.82355L16.4708 7.00002V7.91179H14.2355C14.0884 5.7059 12.2355 3.9412 10.0002 3.9412C7.7355 3.9412 5.91197 5.7059 5.76491 7.91179H3.52961V6.97061H3.41197ZM6.26491 7.85296C6.41197 5.97061 8.0002 4.47061 9.94138 4.47061C11.8826 4.47061 13.4414 5.97061 13.6178 7.85296H6.26491Z" fill="#4D4F5C"/>
<path d="M6.23527 14.4412C6.02938 14.2353 4.47056 12.6765 4.49997 12.7059C4.44115 12.6471 4.35291 12.6177 4.29409 12.6177H1.17644C0.999971 12.6177 0.882324 12.7353 0.882324 12.9118V19.0883C0.882324 19.2647 0.999971 19.3824 1.17644 19.3824H6.02938C6.20585 19.3824 6.3235 19.2647 6.3235 19.0883V14.6471C6.3235 14.5883 6.29409 14.5 6.23527 14.4412ZM4.61762 13.6471L5.3235 14.353H4.61762V13.6471ZM1.47056 18.8236V13.2353H4.02938V14.6471C4.02938 14.8236 4.14703 14.9412 4.3235 14.9412H5.73527V18.8236H1.47056Z" fill="#4D4F5C"/>
<path d="M19.0292 14.4412C18.8233 14.2353 17.2645 12.6765 17.2939 12.7059C17.2351 12.6471 17.1469 12.6177 17.088 12.6177H13.9704C13.7939 12.6177 13.6763 12.7353 13.6763 12.9118V19.0883C13.6763 19.2647 13.7939 19.3824 13.9704 19.3824H18.8233C18.9998 19.3824 19.1174 19.2647 19.1174 19.0883V14.6471C19.1174 14.5883 19.088 14.5 19.0292 14.4412ZM17.4116 13.6471L18.1174 14.353H17.4116V13.6471ZM14.2645 18.8236V13.2353H16.8233V14.6471C16.8233 14.8236 16.941 14.9412 17.1174 14.9412H18.5292V18.8236H14.2645Z" fill="#4D4F5C"/>
</g>
<defs>
<clipPath id="clip0_1196_3211">
<rect width="20" height="20" fill="white"/>
</clipPath>
</defs>
</svg>
