<svg width="20" height="20" viewBox="0 0 20 20" fill="none" xmlns="http://www.w3.org/2000/svg">
<g clip-path="url(#clip0_1196_3219)">
<path d="M3.01416 9.16211H5.97649C6.19225 9.16211 6.36712 8.98724 6.36712 8.77148C6.36712 8.55588 6.19225 8.38086 5.97649 8.38086H3.01416C2.7984 8.38086 2.62354 8.55588 2.62354 8.77148C2.62354 8.98724 2.7984 9.16211 3.01416 9.16211Z" fill="#4D4F5C"/>
<path d="M3.01416 11.0373H6.23696C6.45257 11.0373 6.62759 10.8622 6.62759 10.6466C6.62759 10.4309 6.45257 10.256 6.23696 10.256H3.01416C2.7984 10.256 2.62354 10.4309 2.62354 10.6466C2.62354 10.8622 2.7984 11.0373 3.01416 11.0373Z" fill="#4D4F5C"/>
<path d="M7.84814 11.0371C7.95084 11.0371 8.0517 10.9958 8.12433 10.9227C8.19696 10.85 8.23877 10.7496 8.23877 10.6465C8.23877 10.5438 8.19696 10.4429 8.12433 10.3703C8.0517 10.2977 7.95084 10.2559 7.84814 10.2559C7.74545 10.2559 7.64459 10.2977 7.57196 10.3703C7.49887 10.4429 7.45752 10.5438 7.45752 10.6465C7.45752 10.7496 7.49887 10.85 7.57196 10.9227C7.64459 10.9958 7.74499 11.0371 7.84814 11.0371Z" fill="#4D4F5C"/>
<path d="M11.486 8.51592C13.3816 8.51592 14.9236 6.97387 14.9236 5.07827C14.9236 3.18283 13.3816 1.64062 11.486 1.64062C9.59054 1.64062 8.04834 3.18283 8.04834 5.07827C8.04834 6.97387 9.59054 8.51592 11.486 8.51592ZM11.486 2.42203C12.9507 2.42203 14.1424 3.61358 14.1424 5.07827C14.1424 6.54296 12.9507 7.73467 11.486 7.73467C10.0213 7.73467 8.82974 6.54296 8.82974 5.07827C8.82974 3.61358 10.0213 2.42203 11.486 2.42203Z" fill="#4D4F5C"/>
<path d="M18.9886 10.708L18.5164 10.2357V4.92125C18.5164 3.84429 17.64 2.96798 16.5631 2.96798H16.1044C15.3016 1.21826 13.5335 0 11.4857 0C9.43815 0 7.66982 1.21826 6.86721 2.96798H2.57827C1.50116 2.96798 0.625 3.84429 0.625 4.92125V14.7653C0.625 15.8424 1.50116 16.7186 2.57827 16.7186H7.61611V17.657C6.55654 17.6774 5.70098 18.545 5.70098 19.6093C5.70098 19.8251 5.87584 20 6.0916 20H13.0469C13.2626 20 13.4375 19.8251 13.4375 19.6093C13.4375 18.545 12.5819 17.6776 11.5225 17.657V16.7186H16.5631C17.6402 16.7186 18.5164 15.8424 18.5164 14.7653V12.8856C18.6915 12.8201 18.8524 12.7176 18.9886 12.5813C19.505 12.0648 19.505 11.2245 18.9886 10.708ZM16.5631 3.74938C17.2093 3.74938 17.7351 4.27505 17.7351 4.92125V9.45448L15.8882 7.60756C16.318 6.86247 16.5641 5.99868 16.5641 5.07827C16.5641 4.61867 16.5023 4.17312 16.3873 3.74938H16.5631ZM11.4857 0.781248C13.8551 0.781248 15.7827 2.70889 15.7827 5.07827C15.7827 7.44765 13.8551 9.37529 11.4857 9.37529C9.11635 9.37529 7.18871 7.44765 7.18871 5.07827C7.18871 2.70889 9.11635 0.781248 11.4857 0.781248ZM2.57827 3.74938H6.58431C6.46926 4.17312 6.40746 4.61867 6.40746 5.07827C6.40746 5.57387 6.47918 6.05269 6.61208 6.50588H3.01406C2.79831 6.50588 2.62344 6.68074 2.62344 6.8965C2.62344 7.11211 2.79831 7.28713 3.01406 7.28713H6.91344C7.7365 8.9839 9.47676 10.1567 11.4857 10.1567C12.406 10.1567 13.2698 9.91056 14.0149 9.48088L17.1153 12.5813C17.2889 12.7549 17.5024 12.8743 17.7351 12.9312V13.2809H1.40625V4.92125C1.40625 4.27505 1.93207 3.74938 2.57827 3.74938ZM12.5894 19.2187H6.54921C6.71035 18.7638 7.14492 18.4373 7.65425 18.4373H11.4842C11.9935 18.4373 12.4281 18.7638 12.5894 19.2187ZM10.7413 17.6561H8.39735V16.7186H10.7413V17.6561ZM16.5631 15.9373H2.57827C1.93207 15.9373 1.40625 15.4115 1.40625 14.7653V14.0622H17.7351V14.7653C17.7351 15.4115 17.2093 15.9373 16.5631 15.9373ZM18.4361 12.0288C18.2243 12.2407 17.8795 12.2406 17.6677 12.0288L14.6701 9.03105C14.9527 8.80308 15.2104 8.54536 15.4384 8.26277L18.4361 11.2605C18.6479 11.4723 18.6479 11.817 18.4361 12.0288Z" fill="#4D4F5C"/>
<path d="M11.4858 4.10187C12.0243 4.10187 12.4624 4.53995 12.4624 5.07827C12.4624 5.29403 12.6373 5.4689 12.853 5.4689C13.0688 5.4689 13.2436 5.29403 13.2436 5.07827C13.2436 4.10904 12.4551 3.32062 11.4858 3.32062C11.2701 3.32062 11.0952 3.49564 11.0952 3.71124C11.0952 3.927 11.2701 4.10187 11.4858 4.10187Z" fill="#4D4F5C"/>
</g>
<defs>
<clipPath id="clip0_1196_3219">
<rect width="20" height="20" fill="white"/>
</clipPath>
</defs>
</svg>
