<svg width="20" height="20" viewBox="0 0 20 20" fill="none" xmlns="http://www.w3.org/2000/svg">
<g clip-path="url(#clip0_1196_3228)">
<path d="M15.3246 3.31576C15.3333 3.31639 15.342 3.31702 15.3509 3.31702C15.3659 3.31702 15.381 3.31576 15.3957 3.3137C15.7895 3.32177 16.1046 3.64295 16.1051 4.03676C16.1051 4.2157 16.2502 4.36079 16.4292 4.36079C16.6081 4.36079 16.7532 4.2157 16.7532 4.03676C16.7524 3.39265 16.304 2.83541 15.6749 2.69681V2.38543C15.6749 2.20649 15.5298 2.0614 15.3509 2.0614C15.172 2.0614 15.0269 2.20649 15.0269 2.38543V2.71152C14.3617 2.88936 13.9314 3.53283 14.0211 4.21554C14.1108 4.89825 14.6927 5.40867 15.3813 5.40867C15.7811 5.40867 16.1051 5.73286 16.1051 6.13267C16.1051 6.53233 15.7811 6.85652 15.3813 6.85652C14.9815 6.85652 14.6574 6.53233 14.6574 6.13267C14.6574 5.95373 14.5123 5.80864 14.3334 5.80864C14.1545 5.80864 14.0094 5.95373 14.0094 6.13267C14.0102 6.75352 14.4272 7.29669 15.0269 7.45791V7.81295C15.0269 7.9919 15.172 8.13698 15.3509 8.13698C15.5298 8.13698 15.6749 7.9919 15.6749 7.81295V7.47278C16.3592 7.32295 16.8207 6.68153 16.7453 5.98506C16.67 5.28858 16.0819 4.76076 15.3813 4.76092C14.9925 4.76108 14.6731 4.45414 14.6577 4.06571C14.6426 3.67728 14.937 3.34613 15.3246 3.31591V3.31576Z" fill="#4D4F5C"/>
<path d="M15.3999 0.477173C13.4065 0.477173 11.7053 1.77788 11.068 3.51955H3.02561C2.84745 3.51955 2.70284 3.68014 2.70158 3.85814L2.625 15.2252H0.332575C0.15363 15.2252 0 15.3547 0 15.534V16.9765C0.00411365 18.3345 1.07367 19.4501 2.43023 19.5115V19.5186H12.4347V19.5091C12.5157 19.5121 12.5491 19.5186 12.6003 19.5186H12.6073C14.0113 19.5164 15.1484 18.3775 15.1484 16.9735V9.68025C15.2295 9.68468 15.3152 9.68706 15.3991 9.68706C17.9358 9.68706 20.0001 7.61883 20.0001 5.08196C20.0001 2.54524 17.9367 0.477173 15.3999 0.477173ZM2.55348 18.8705H2.55143C1.50323 18.8691 0.652809 18.0215 0.648062 16.9732V15.8732H10.045V16.9686C10.0454 17.6448 10.3155 18.293 10.7952 18.7697C10.8292 18.8037 10.8715 18.83 10.9071 18.8705H2.55348ZM14.5004 16.9732C14.5005 18.0196 13.6533 18.8685 12.607 18.8705H12.6008C11.5502 18.8686 10.6982 18.0193 10.693 16.9689V15.534C10.6957 15.4511 10.6641 15.3709 10.6054 15.3123C10.5467 15.2538 10.4665 15.2223 10.3837 15.2252H3.27306L3.34742 4.16761H10.8881C10.8307 4.46427 10.8009 4.76552 10.7993 5.06756C10.7987 5.70629 10.9319 6.33789 11.1905 6.92188H8.12989C7.95078 6.92188 7.80586 7.06696 7.80586 7.24591C7.80586 7.42485 7.95078 7.56994 8.12989 7.56994H11.542C12.2105 8.62114 13.2791 9.35401 14.5004 9.59925V16.9732ZM15.3999 9.03915C13.2171 9.03915 11.4474 7.26964 11.4476 5.0867C11.4476 2.90377 13.2171 1.13425 15.4 1.13425C17.5828 1.13425 19.3523 2.90392 19.3523 5.0867C19.3499 7.26853 17.5818 9.03678 15.3999 9.03915Z" fill="#4D4F5C"/>
<path d="M6.04982 9.07837C5.47786 9.07837 5.0127 9.52882 5.0127 10.0826C5.0127 10.6363 5.47786 11.0868 6.04982 11.0868C6.62177 11.0868 7.08709 10.6363 7.08709 10.0826C7.08709 9.52882 6.62177 9.07837 6.04982 9.07837ZM6.04982 10.4387C5.83511 10.4387 5.66076 10.2789 5.66076 10.0826C5.66076 9.88607 5.83527 9.72643 6.04982 9.72643C6.26436 9.72643 6.43903 9.88623 6.43903 10.0826C6.43903 10.2789 6.26436 10.4387 6.04982 10.4387Z" fill="#4D4F5C"/>
<path d="M7.80566 10.0812C7.80566 10.2601 7.95059 10.4052 8.1297 10.4052H12.4497C12.6286 10.4052 12.7737 10.2601 12.7737 10.0812C12.7737 9.90223 12.6286 9.75714 12.4497 9.75714H8.1297C7.95059 9.75714 7.80566 9.90223 7.80566 10.0812Z" fill="#4D4F5C"/>
<path d="M6.04982 6.26163C5.47786 6.26163 5.0127 6.71223 5.0127 7.266C5.0127 7.81976 5.47786 8.27021 6.04982 8.27021C6.62177 8.27021 7.08709 7.81976 7.08709 7.266C7.08709 6.71223 6.62177 6.26163 6.04982 6.26163ZM6.04982 7.62215C5.83511 7.62215 5.66076 7.46235 5.66076 7.266C5.66076 7.06965 5.83527 6.90969 6.04982 6.90969C6.26436 6.90969 6.43903 7.06949 6.43903 7.266C6.43903 7.46235 6.26436 7.6223 6.04982 7.6223V7.62215Z" fill="#4D4F5C"/>
<path d="M6.04982 11.8948C5.47786 11.8948 5.0127 12.3453 5.0127 12.899C5.0127 13.4528 5.47786 13.9033 6.04982 13.9033C6.62177 13.9033 7.08709 13.4528 7.08709 12.899C7.08709 12.3453 6.62177 11.8948 6.04982 11.8948ZM6.04982 13.2552C5.83511 13.2552 5.66076 13.0956 5.66076 12.899C5.66076 12.7027 5.83527 12.5429 6.04982 12.5429C6.26436 12.5429 6.43903 12.7027 6.43903 12.899C6.43903 13.0954 6.26436 13.2552 6.04982 13.2552Z" fill="#4D4F5C"/>
<path d="M12.4497 12.5924H8.1297C7.95059 12.5924 7.80566 12.7375 7.80566 12.9164C7.80566 13.0954 7.95059 13.2405 8.1297 13.2405H12.4497C12.6286 13.2405 12.7737 13.0954 12.7737 12.9164C12.7737 12.7375 12.6286 12.5924 12.4497 12.5924Z" fill="#4D4F5C"/>
</g>
<defs>
<clipPath id="clip0_1196_3228">
<rect width="20" height="20" fill="white"/>
</clipPath>
</defs>
</svg>
