<svg width="20" height="20" viewBox="0 0 20 20" fill="none" xmlns="http://www.w3.org/2000/svg">
<path d="M14.9608 6.0585C14.0884 0.305859 5.91203 0.304536 5.03927 6.05856C4.47435 6.03507 3.91045 6.12486 3.38077 6.32263C2.85109 6.52039 2.36633 6.82214 1.95504 7.21011C1.54375 7.59808 1.21425 8.06441 0.985931 8.58166C0.757613 9.09891 0.635097 9.65662 0.625598 10.2219C0.616099 10.7873 0.719809 11.3488 0.930621 11.8734C1.14143 12.398 1.45508 12.8752 1.85311 13.2767C2.25113 13.6783 2.72548 13.9962 3.24822 14.2116C3.77096 14.4271 4.33152 14.5357 4.8969 14.5312H5.93755C6.10182 14.529 6.25859 14.4621 6.37395 14.3452C6.48931 14.2282 6.55399 14.0705 6.55398 13.9062C6.55398 13.742 6.4893 13.5843 6.37394 13.4673C6.25857 13.3503 6.1018 13.2835 5.93753 13.2812H4.8969C4.47559 13.2854 4.05814 13.2006 3.67189 13.0323C3.28563 12.864 2.93928 12.616 2.6555 12.3045C2.37173 11.9931 2.15692 11.6252 2.02515 11.225C1.89339 10.8248 1.84762 10.4013 1.89086 9.9822C1.9341 9.56309 2.06536 9.15783 2.27606 8.79296C2.48676 8.4281 2.77214 8.11184 3.11353 7.8649C3.45491 7.61796 3.8446 7.4459 4.25708 7.35998C4.66956 7.27407 5.09554 7.27624 5.50712 7.36635C5.60358 7.3843 5.7029 7.3795 5.79717 7.35233C5.89145 7.32517 5.9781 7.2764 6.05022 7.20988C6.12235 7.14337 6.17796 7.06095 6.21265 6.96917C6.24734 6.87739 6.26015 6.77879 6.25005 6.6812C6.45661 1.75799 13.5397 1.75639 13.7499 6.67544C13.7391 6.77345 13.7513 6.87263 13.7857 6.96506C13.82 7.05749 13.8755 7.1406 13.9477 7.20774C14.02 7.27489 14.1069 7.3242 14.2016 7.35173C14.2962 7.37927 14.3961 7.38426 14.493 7.36632C14.9046 7.27622 15.3306 7.27405 15.7431 7.35997C16.1555 7.44589 16.5452 7.61796 16.8866 7.8649C17.228 8.11185 17.5134 8.42811 17.7241 8.79298C17.9347 9.15785 18.066 9.5631 18.1092 9.98221C18.1525 10.4013 18.1067 10.8248 17.9749 11.225C17.8432 11.6252 17.6284 11.9931 17.3446 12.3045C17.0608 12.616 16.7145 12.8639 16.3282 13.0323C15.942 13.2006 15.5245 13.2854 15.1032 13.2812H14.0626C13.8984 13.2836 13.7417 13.3505 13.6264 13.4675C13.5112 13.5844 13.4466 13.742 13.4466 13.9063C13.4466 14.0705 13.5112 14.2281 13.6265 14.345C13.7417 14.462 13.8984 14.5289 14.0626 14.5312H15.1032C15.6686 14.5357 16.2291 14.427 16.7519 14.2116C17.2746 13.9961 17.7489 13.6782 18.1469 13.2767C18.5449 12.8751 18.8586 12.398 19.0694 11.8733C19.2802 11.3487 19.3839 10.7872 19.3744 10.2219C19.3649 9.6566 19.2424 9.0989 19.0141 8.58166C18.7858 8.06441 18.4563 7.59808 18.045 7.21011C17.6337 6.82214 17.149 6.52039 16.6193 6.32261C16.0896 6.12483 15.5257 6.03503 14.9608 6.0585Z" fill="#4D4F5C"/>
<path d="M8.25489 9.40226C8.13684 9.28638 7.97802 9.22147 7.8126 9.22147C7.64718 9.22147 7.48836 9.28638 7.37031 9.40226L5.80821 10.9644C5.72278 11.0525 5.66501 11.1637 5.642 11.2843C5.619 11.4049 5.63178 11.5295 5.67875 11.6429C5.72572 11.7564 5.80485 11.8535 5.90637 11.9225C6.0079 11.9915 6.12739 12.0293 6.25013 12.0313C6.59617 12.071 6.96017 11.5513 7.1876 11.3526V17.6563C7.1876 17.822 7.25345 17.981 7.37066 18.0982C7.48787 18.2154 7.64684 18.2813 7.8126 18.2813C7.97836 18.2813 8.13733 18.2154 8.25454 18.0982C8.37175 17.981 8.4376 17.822 8.4376 17.6563V11.3525C8.66811 11.5536 9.02559 12.069 9.3751 12.0312C9.49784 12.0293 9.61733 11.9915 9.71886 11.9225C9.82039 11.8535 9.89951 11.7564 9.94648 11.6429C9.99345 11.5295 10.0062 11.4049 9.98321 11.2843C9.9602 11.1637 9.90241 11.0525 9.81698 10.9644L8.25489 9.40226Z" fill="#4D4F5C"/>
<path d="M11.5623 16.1475L11.0667 15.6519C10.9489 15.5375 10.7909 15.4741 10.6267 15.4753C10.4626 15.4765 10.3055 15.5423 10.1894 15.6583C10.0733 15.7744 10.0076 15.9315 10.0064 16.0957C10.0052 16.2598 10.0686 16.4179 10.183 16.5357L11.745 18.0977C11.8631 18.2136 12.0219 18.2786 12.1873 18.2786C12.3528 18.2786 12.5116 18.2136 12.6296 18.0977L14.1917 16.5356C14.3061 16.4179 14.3695 16.2598 14.3682 16.0957C14.367 15.9315 14.3013 15.7744 14.1852 15.6584C14.0691 15.5423 13.912 15.4766 13.7479 15.4753C13.5837 15.4741 13.4257 15.5375 13.3079 15.6519L12.8123 16.1475V9.84375C12.8123 9.67799 12.7465 9.51902 12.6293 9.40181C12.5121 9.2846 12.3531 9.21875 12.1873 9.21875C12.0216 9.21875 11.8626 9.2846 11.7454 9.40181C11.6282 9.51902 11.5623 9.67799 11.5623 9.84375V16.1475Z" fill="#4D4F5C"/>
<path d="M12.1876 8.28125C12.3517 8.27881 12.5084 8.21189 12.6236 8.09494C12.7388 7.97799 12.8034 7.82041 12.8034 7.65624C12.8034 7.49206 12.7388 7.33448 12.6236 7.21754C12.5083 7.1006 12.3517 7.03368 12.1876 7.03125C12.0234 7.03369 11.8668 7.10061 11.7516 7.21756C11.6364 7.33451 11.5718 7.49209 11.5718 7.65626C11.5718 7.82044 11.6364 7.97802 11.7516 8.09496C11.8668 8.2119 12.0234 8.27882 12.1876 8.28125Z" fill="#4D4F5C"/>
</svg>
