<svg width="20" height="20" viewBox="0 0 20 20" fill="none" xmlns="http://www.w3.org/2000/svg">
<g id="Icon">
<path id="Vector" d="M14.5611 11.2786H14.6741H15.0772C15.3199 11.2783 15.5526 11.1818 15.7242 11.0102C15.8959 10.8386 15.9924 10.6059 15.9927 10.3632V9.92248C15.9924 9.67978 15.8959 9.44712 15.7242 9.27552C15.5526 9.10392 15.3199 9.0074 15.0772 9.00713H14.6831H14.5693L14.5387 8.89748C14.4428 8.5544 14.3067 8.22387 14.1332 7.91278L14.078 7.8138L14.1581 7.73364L14.435 7.45671C14.6065 7.28479 14.7028 7.05188 14.7028 6.80906C14.7027 6.56631 14.6064 6.33348 14.435 6.16162C14.435 6.16158 14.4349 6.16153 14.4349 6.16148L14.1249 5.85232C13.9501 5.68561 13.7179 5.59255 13.4764 5.59249C13.2348 5.59242 13.0026 5.68532 12.8278 5.85188L12.5576 6.12187L12.477 6.20238L12.3778 6.14638C12.0654 5.97 11.733 5.83157 11.3877 5.73405L11.2785 5.7032V5.5897V5.20819C11.2781 4.96549 11.1816 4.73283 11.0099 4.56124C10.8383 4.38964 10.6056 4.29312 10.3629 4.29284H9.92256C9.67986 4.29312 9.44718 4.38964 9.27555 4.56124C9.10391 4.73284 9.00735 4.9655 9.00703 5.2082V5.5897V5.70321L8.89779 5.73406C8.55257 5.83153 8.22025 5.96995 7.90791 6.14637L7.80879 6.20235L7.7282 6.12195L7.45794 5.85231C7.28318 5.68573 7.05104 5.59272 6.80957 5.59259C6.56814 5.59245 6.33593 5.68517 6.161 5.8515L5.85042 6.16188C5.67898 6.33372 5.5827 6.56655 5.5827 6.80929C5.5827 7.05202 5.67898 7.28485 5.85042 7.45669L6.12737 7.73363L6.20752 7.81379L6.1523 7.91278C5.97876 8.22386 5.84265 8.5544 5.74682 8.89748L5.7162 9.00713H5.60235H5.20827C4.96557 9.0074 4.73289 9.10392 4.56126 9.27552C4.38963 9.44712 4.29307 9.67978 4.29274 9.92248V10.3632C4.29307 10.6059 4.38963 10.8386 4.56126 11.0102C4.73289 11.1818 4.96557 11.2783 5.20827 11.2786H5.61135H5.72436L5.75553 11.3872C5.85295 11.7266 5.98985 12.0534 6.16342 12.361L6.21945 12.4602L6.13882 12.5408L5.85042 12.829C5.85037 12.829 5.85031 12.8291 5.85026 12.8291C5.85025 12.8292 5.85025 12.8292 5.85025 12.8292C5.67889 13.0011 5.58267 13.2339 5.5827 13.4766C5.58274 13.7194 5.67908 13.9523 5.8506 14.1242L6.1606 14.4334C6.33535 14.6001 6.56757 14.6931 6.80912 14.6932C7.05062 14.6933 7.28286 14.6004 7.45769 14.4338L7.75025 14.1413L7.8305 14.061L7.92955 14.1164C8.23559 14.2876 8.56061 14.4225 8.89797 14.5182L9.00703 14.5492V14.6625V15.0775C9.00735 15.3202 9.10392 15.5529 9.27555 15.7245C9.44718 15.896 9.67986 15.9926 9.92256 15.9928H10.3629C10.6056 15.9926 10.8383 15.896 11.0099 15.7245C11.1816 15.5529 11.2781 15.3202 11.2785 15.0775V14.6625V14.5492L11.3875 14.5182C11.7249 14.4225 12.0499 14.2876 12.3559 14.1164L12.4549 14.061L12.5352 14.1412L12.8276 14.4334C13.0023 14.6 13.2345 14.693 13.4759 14.6931C13.7173 14.6932 13.9496 14.6005 14.1245 14.4342L14.4351 14.1238C14.6065 13.952 14.7028 13.7191 14.7028 13.4764C14.7028 13.2337 14.6066 13.001 14.4352 12.8292L14.5611 11.2786ZM14.5611 11.2786L14.53 11.3872C14.4325 11.7266 14.2956 12.0534 14.122 12.361L14.066 12.4602L14.1466 12.5408L14.4351 12.829L14.5611 11.2786ZM16.9245 16.9241L16.9242 16.9245C15.5666 18.282 13.8369 19.2065 11.9539 19.581C10.0709 19.9556 8.11918 19.7633 6.34545 19.0286C4.57171 18.2939 3.05568 17.0497 1.98906 15.4534C0.922432 13.857 0.353125 11.9803 0.353125 10.0604C0.353125 8.14051 0.922432 6.26375 1.98906 4.66742C3.05568 3.0711 4.57171 1.82691 6.34545 1.09219C8.11918 0.35747 10.0709 0.165221 11.9539 0.539753C13.8369 0.914284 15.5666 1.83877 16.9242 3.19632L16.9245 3.19664C17.8294 4.09601 18.5475 5.16543 19.0376 6.34339C19.5276 7.52134 19.7799 8.78457 19.7799 10.0604C19.7799 11.3362 19.5276 12.5994 19.0376 13.7774C18.5475 14.9554 17.8294 16.0248 16.9245 16.9241ZM12.8642 10.143V10.1428C12.8642 9.6046 12.7046 9.07843 12.4055 8.6309C12.1065 8.18336 11.6815 7.83455 11.1842 7.62857C10.6869 7.42259 10.1397 7.3687 9.61182 7.47371C9.08391 7.57871 8.599 7.8379 8.2184 8.2185C7.8378 8.5991 7.57861 9.08401 7.47361 9.61192C7.3686 10.1398 7.42249 10.687 7.62847 11.1843C7.83445 11.6816 8.18326 12.1066 8.6308 12.4056C9.07833 12.7047 9.6045 12.8643 10.1427 12.8643L10.1429 12.8643C10.8644 12.8635 11.5561 12.5765 12.0663 12.0664C12.5764 11.5562 12.8634 10.8645 12.8642 10.143ZM15.9242 4.19664C14.3691 2.64142 12.2598 1.76769 10.0604 1.76765C7.86107 1.76761 5.75176 2.64127 4.19655 4.19643C2.64133 5.7516 1.7676 7.86087 1.76756 10.0602C1.76752 12.2596 2.64118 14.3689 4.19634 15.9241C5.75151 17.4793 7.86078 18.3531 10.0602 18.3531C12.2595 18.3532 14.3688 17.4795 15.924 15.9243C17.4793 14.3692 18.353 12.2599 18.353 10.0605C18.3531 7.86116 17.4794 5.75185 15.9242 4.19664Z" fill="#4D4F5C" stroke="white" stroke-width="0.3"/>
</g>
</svg>
