<svg width="20" height="20" viewBox="0 0 20 20" fill="none" xmlns="http://www.w3.org/2000/svg">
<path d="M18.1214 9.3137C17.2132 8.10369 13.9678 4.16666 9.99926 4.16666C6.03069 4.16666 2.78521 8.08563 1.89396 9.29564C1.59134 9.69296 1.59134 10.2708 1.89396 10.6863C2.80208 11.8963 6.0475 15.8333 9.99926 15.8333C13.9678 15.8333 17.2133 11.9143 18.1046 10.7043C18.4072 10.307 18.4072 9.69302 18.1213 9.3137H18.1214ZM9.99926 5.70174C13.1102 5.70174 15.8848 8.84418 16.7929 9.99997C15.9017 11.1558 13.127 14.2982 9.99926 14.2982C7.00602 14.2982 4.31546 11.3726 3.20561 9.99997C3.94542 9.06083 6.77059 5.70174 9.99926 5.70174Z" fill="#A2A5AC"/>
<path d="M9.99936 13.6481C11.8659 13.6481 13.3962 12.0046 13.3962 9.99999C13.3962 7.99538 11.8827 6.3519 9.99936 6.3519C8.11603 6.3519 6.60254 7.99538 6.60254 9.99999C6.60254 12.0046 8.13282 13.6481 9.99936 13.6481ZM9.99936 7.88699C11.0923 7.88699 11.9668 8.84416 11.9668 9.99999C11.9668 11.1558 11.0924 12.113 9.99936 12.113C8.90635 12.113 8.03189 11.1738 8.03189 9.99999C8.03189 8.82613 8.92314 7.88699 9.99936 7.88699Z" fill="#A2A5AC"/>
</svg>
