<svg width="17" height="15" viewBox="0 0 17 15" fill="none" xmlns="http://www.w3.org/2000/svg">
<path d="M16.9657 6.19726C16.956 6.02556 16.9466 5.86351 16.9328 5.70145C16.7595 3.64938 15.9326 1.86214 14.4762 0.389226C14.3629 0.272304 14.2204 0.187797 14.0635 0.144405C13.9066 0.101147 13.7409 0.100612 13.5837 0.142932C13.424 0.181905 13.2775 0.262397 13.159 0.376236C13.0405 0.489941 12.9541 0.632977 12.9087 0.790887C12.798 1.16964 12.8866 1.47379 13.2038 1.80633C14.6499 3.32361 15.2599 5.14088 15.017 7.20632L15.0168 7.20646C14.9088 8.10779 14.614 8.97687 14.1515 9.75807C13.689 10.5393 13.0687 11.2156 12.3304 11.744C11.5819 12.2791 10.7299 12.6527 9.82914 12.8406C8.92835 13.0283 7.99822 13.0266 7.09808 12.8352C3.68439 12.1069 1.43477 8.83509 1.97786 5.38869C2.19495 4.01017 2.81679 2.77975 3.82555 1.73178H3.82541C4.00782 1.54843 4.10867 1.29933 4.10519 1.04071C4.09702 0.785982 3.98667 0.545184 3.79876 0.37283C3.62747 0.20783 3.39927 0.115018 3.16125 0.113678C2.89005 0.11649 2.63209 0.231535 2.44876 0.431355C0.417749 2.56886 -0.355428 5.09661 0.150012 7.94472C0.54416 10.1651 1.7925 12.0981 3.66498 13.3876C5.54788 14.6843 7.8132 15.1632 10.0435 14.7376C14.0933 13.9624 16.9435 10.5424 16.9788 6.41678C16.9746 6.34352 16.9705 6.2704 16.9662 6.19741L16.9657 6.19726Z" fill="#A2A5AC"/>
</svg>
