<svg width="35" height="36" viewBox="0 0 35 36" fill="none" xmlns="http://www.w3.org/2000/svg">
<path d="M17.5199 9.54999C18.7211 9.54999 19.7023 10.4959 19.7574 11.6822C21.8504 12.5674 23.26 14.6322 23.26 16.9697V20.1953C24.1983 20.2672 24.9399 21.0526 24.9399 22.01C24.9399 23.0145 24.1231 23.8299 23.1172 23.8299H11.9227C10.9163 23.8299 10.1001 23.0156 10.1001 22.01C10.1001 21.0529 10.8405 20.2672 11.78 20.1953V16.9697C11.78 14.6318 13.1894 12.5672 15.2825 11.6822C15.3376 10.4955 16.3196 9.54999 17.52 9.54999H17.5199ZM16.1936 12.8361C14.4121 13.4068 13.1799 15.0687 13.1799 16.9697V20.3295C13.1799 21.0252 12.6155 21.5898 11.9205 21.5898C11.6887 21.5898 11.5 21.7787 11.5 22.0099C11.5 22.2416 11.6887 22.4298 11.9227 22.4298H23.1172C23.3504 22.4298 23.5398 22.2408 23.5398 22.0099C23.5398 21.7791 23.3504 21.5898 23.1193 21.5898C22.4232 21.5898 21.8599 21.0269 21.8599 20.3295V16.9697C21.8599 15.0693 20.6275 13.4068 18.8463 12.8361L18.3599 12.6803V11.7875C18.3599 11.3258 17.9836 10.95 17.5199 10.95C17.0568 10.95 16.6798 11.326 16.6798 11.7875V12.6803L16.1936 12.8361ZM14.86 23.8301H16.26C16.26 24.526 16.824 25.09 17.5199 25.09C18.2158 25.09 18.7799 24.526 18.7799 23.8301H20.1799C20.1799 25.2992 18.9891 26.49 17.5199 26.49C16.0508 26.49 14.86 25.2992 14.86 23.8301Z" fill="#6F767E"/>
</svg>
