<svg width="17" height="18" viewBox="0 0 17 18" fill="none" xmlns="http://www.w3.org/2000/svg">
<path d="M14.8751 15.375L11.7989 12.2987M11.7989 12.2987C12.3251 11.7725 12.7425 11.1478 13.0273 10.4603C13.312 9.77276 13.4586 9.03587 13.4586 8.29169C13.4586 7.54751 13.312 6.81062 13.0273 6.1231C12.7425 5.43557 12.3251 4.81086 11.7989 4.28465C11.2726 3.75844 10.6479 3.34102 9.96041 3.05624C9.27288 2.77145 8.53599 2.62488 7.79181 2.62488C7.04764 2.62488 6.31075 2.77145 5.62322 3.05624C4.93569 3.34102 4.31098 3.75844 3.78477 4.28465C2.72204 5.34738 2.125 6.78876 2.125 8.29169C2.125 9.79462 2.72204 11.236 3.78477 12.2987C4.8475 13.3615 6.28888 13.9585 7.79181 13.9585C9.29474 13.9585 10.7361 13.3615 11.7989 12.2987Z" stroke="#757575" stroke-linecap="round" stroke-linejoin="round"/>
</svg>
