<svg width="35" height="36" viewBox="0 0 35 36" fill="none" xmlns="http://www.w3.org/2000/svg">
<path d="M19.3539 29.3416H15.5973C14.9352 29.3416 14.3 29.0786 13.8318 28.6104C13.3636 28.1422 13.1006 27.5071 13.1006 26.8449C13.1029 26.7125 13.0695 26.5819 13.0039 26.4668C12.9381 26.352 12.8425 26.2569 12.7273 26.1916C12.4984 26.0506 12.2096 26.0506 11.9806 26.1916C11.407 26.5295 10.7214 26.6221 10.0789 26.4483C9.44077 26.2717 8.89662 25.8532 8.56227 25.2817L6.68397 22.0266C6.35369 21.4539 6.26405 20.7738 6.43475 20.1352C6.60526 19.4965 7.02225 18.9516 7.59395 18.6199C7.71133 18.5563 7.80938 18.4619 7.87715 18.3467C7.94493 18.2316 7.98028 18.1002 7.97891 17.9666C7.98048 17.8359 7.94669 17.7072 7.88087 17.5941C7.81505 17.4813 7.71993 17.3881 7.60567 17.325C7.03107 16.993 6.61152 16.4469 6.43867 15.8061C6.26602 15.1655 6.3541 14.4824 6.68398 13.9067L8.56228 10.6516C8.89666 10.0801 9.44078 9.66152 10.0789 9.48497C10.7256 9.32755 11.4082 9.44142 11.9689 9.80001C12.1226 9.89825 12.3068 9.93771 12.4873 9.91115C12.6679 9.88478 12.8328 9.79396 12.9519 9.65568C13.0711 9.5174 13.1361 9.34083 13.1355 9.15822C13.1324 8.49417 13.3941 7.85607 13.8627 7.38537C14.3312 6.91467 14.9681 6.65002 15.6322 6.65002H19.3889C20.0512 6.65002 20.6861 6.91291 21.1543 7.38127C21.6225 7.84944 21.8856 8.48437 21.8856 9.14672C21.8832 9.27914 21.9166 9.40961 21.9823 9.52465C22.0481 9.63969 22.1436 9.7348 22.259 9.80004C22.4879 9.94105 22.7768 9.94105 23.0057 9.80004C23.5792 9.46195 24.2647 9.36937 24.9073 9.5434C25.5454 9.71996 26.0895 10.1385 26.4239 10.71L28.3022 13.9651L28.3024 13.9649C28.6324 14.5375 28.7221 15.2178 28.5516 15.8565C28.3809 16.495 27.9641 17.0399 27.3922 17.3717C27.2748 17.4352 27.1768 17.5297 27.109 17.6448C27.0412 17.76 27.0061 17.8915 27.0072 18.0251C27.0057 18.1557 27.0396 18.2844 27.1053 18.3973C27.1711 18.5104 27.2662 18.6034 27.3807 18.6667C27.9551 18.9987 28.3746 19.5448 28.5475 20.1854C28.7201 20.8262 28.632 21.5092 28.3023 22.085L26.424 25.3401L26.4238 25.3399C26.0895 25.9114 25.5453 26.3299 24.9072 26.5067C24.2686 26.6813 23.5863 26.5885 23.0172 26.2501C22.8635 26.1518 22.6795 26.1122 22.4988 26.1387C22.3182 26.1653 22.1533 26.2559 22.0342 26.3942C21.9152 26.5325 21.85 26.7092 21.8506 26.8917C21.8383 27.5458 21.5699 28.1688 21.1031 28.627C20.6362 29.0852 20.008 29.3418 19.3539 29.3416L19.3539 29.3416ZM12.3539 24.3366C12.7924 24.3384 13.2229 24.455 13.6024 24.6751C13.9828 24.8921 14.2991 25.2062 14.5184 25.5855C14.7377 25.9646 14.8523 26.3952 14.8506 26.8333C14.8506 27.0325 14.9289 27.2235 15.0686 27.3656C15.2082 27.5074 15.3982 27.5886 15.5973 27.5917H19.3539C19.5519 27.5917 19.7418 27.513 19.8819 27.373C20.0219 27.2329 20.1006 27.0431 20.1006 26.845C20.0981 26.4052 20.2123 25.9726 20.4315 25.5913C20.6508 25.2101 20.9674 24.8939 21.3489 24.6751C21.727 24.4513 22.1581 24.3331 22.5973 24.3331C23.0366 24.3331 23.4676 24.4513 23.8456 24.6751C24.017 24.7767 24.2221 24.8054 24.4149 24.755C24.6077 24.7046 24.7725 24.5792 24.8723 24.4068L26.809 21.1517C26.91 20.982 26.9385 20.7788 26.8879 20.5878C26.8375 20.397 26.7124 20.2343 26.5407 20.1367C26.0311 19.8437 25.6413 19.38 25.4399 18.8277C25.2385 18.2753 25.2385 17.6697 25.4399 17.1173C25.6412 16.5652 26.0311 16.1015 26.5407 15.8083C26.7131 15.7085 26.8385 15.5439 26.8889 15.3511C26.9393 15.1581 26.9106 14.9533 26.809 14.7818L24.8723 11.5267C24.7723 11.355 24.609 11.2292 24.4172 11.1767C24.2272 11.1267 24.0251 11.1562 23.8573 11.2583C23.0836 11.7022 22.1327 11.7021 21.3594 11.2577C20.586 10.8134 20.1067 9.99192 20.1006 9.10012C20.1006 8.9009 20.0223 8.70989 19.8827 8.56787C19.743 8.42608 19.553 8.34483 19.354 8.3417H15.5973C15.3993 8.3417 15.2094 8.42041 15.0694 8.56045C14.9293 8.70049 14.8506 8.89034 14.8506 9.0884C14.8532 9.52825 14.7389 9.96085 14.5198 10.3421C14.3004 10.7234 13.9838 11.0395 13.6024 11.2583C13.2242 11.4821 12.7932 11.6003 12.3539 11.6003C11.9147 11.6003 11.4836 11.4821 11.1057 11.2583C10.9342 11.1567 10.7291 11.128 10.5363 11.1784C10.3435 11.2288 10.1787 11.3542 10.0789 11.5267L8.2006 14.7817C8.09962 14.9515 8.07111 15.1546 8.1215 15.3456C8.17208 15.5364 8.29728 15.6991 8.46896 15.7968C8.97851 16.0897 9.36836 16.5534 9.56976 17.1058C9.77112 17.6581 9.77112 18.2638 9.56976 18.8161C9.36839 19.3683 8.97856 19.8319 8.46896 20.1251C8.29454 20.223 8.16661 20.3868 8.11388 20.5798C8.06134 20.7728 8.08829 20.9788 8.18888 21.1517L10.0672 24.4068C10.1672 24.5785 10.3307 24.7042 10.5223 24.7568C10.7123 24.8068 10.9144 24.7773 11.0822 24.6751C11.4697 24.4542 11.9078 24.3376 12.3539 24.3367V24.3366Z" fill="#6F767E"/>
<path d="M17.4756 22.3417C16.3152 22.3417 15.2025 21.8807 14.382 21.0602C13.5615 20.2397 13.1006 19.127 13.1006 17.9667C13.1006 16.8063 13.5615 15.6936 14.382 14.8731C15.2025 14.0526 16.3152 13.5917 17.4756 13.5917C18.6359 13.5917 19.7486 14.0526 20.5691 14.8731C21.3896 15.6936 21.8506 16.8063 21.8506 17.9667C21.8506 19.127 21.3896 20.2397 20.5691 21.0602C19.7486 21.8807 18.6359 22.3417 17.4756 22.3417ZM17.4756 15.3417C16.7793 15.3417 16.1117 15.6182 15.6193 16.1104C15.1271 16.6028 14.8506 17.2704 14.8506 17.9667C14.8506 18.663 15.1271 19.3305 15.6193 19.8229C16.1117 20.3151 16.7793 20.5917 17.4756 20.5917C18.1719 20.5917 18.8394 20.3151 19.3318 19.8229C19.824 19.3305 20.1006 18.663 20.1006 17.9667C20.1006 17.2704 19.824 16.6028 19.3318 16.1104C18.8394 15.6182 18.1719 15.3417 17.4756 15.3417Z" fill="#6F767E"/>
</svg>
